<?xml version="1.0" encoding="UTF-8"?>
<svg xmlns="http://www.w3.org/2000/svg" xmlns:xlink="http://www.w3.org/1999/xlink" width="405" height="292" viewBox="76 43 405   292">
<defs>
<clipPath id="clip-0">
<path clip-rule="nonzero" d="M 36 36 L 559 36 L 559 805.867188 L 36 805.867188 Z M 36 36 "/>
</clipPath>
<clipPath id="clip-1">
<path clip-rule="nonzero" d="M 88 42.003906 L 146 42.003906 L 146 100 L 88 100 Z M 88 42.003906 "/>
</clipPath>
</defs>
<path fill-rule="nonzero" fill="rgb(1.959229%, 1.959229%, 1.959229%)" fill-opacity="1" d="M 79.796875 60.089844 C 79.953125 59.875 80.167969 59.71875 80.222656 59.503906 C 82.03125 52.058594 86.875 47.746094 94.167969 46.3125 C 97.679688 45.621094 101.351562 45.246094 104.972656 45.246094 C 165.121094 45.195312 225.269531 45.195312 285.417969 45.195312 C 288.824219 45.195312 292.015625 46.046875 295.425781 47.214844 C 295.425781 54.714844 295.425781 62.109375 295.425781 69.664062 C 296.277344 69.664062 296.96875 69.664062 297.660156 69.664062 C 307.933594 69.664062 318.257812 69.664062 328.53125 69.769531 C 337.101562 69.824219 345.140625 71.953125 352.644531 76.046875 C 360.628906 80.355469 367.761719 85.890625 374.839844 91.472656 C 380.21875 95.675781 385.378906 100.09375 391.5 103.230469 C 400.816406 108.070312 410.71875 110.835938 421.257812 110.835938 C 438.554688 110.835938 455.855469 110.730469 473.101562 110.625 C 474.058594 110.625 475.015625 110.625 476.1875 110.625 C 476.242188 111.847656 476.292969 112.804688 476.292969 113.761719 C 476.292969 132.648438 476.292969 151.53125 476.292969 170.414062 C 476.292969 216.214844 476.292969 262.070312 476.242188 307.871094 C 476.242188 311.117188 475.816406 314.414062 475.175781 317.605469 C 474.113281 323.191406 469.640625 327.289062 463.625 327.5 C 462.03125 327.554688 460.433594 327.714844 458.835938 327.714844 C 405.289062 327.714844 351.6875 327.714844 298.140625 327.714844 C 297.179688 327.714844 296.222656 327.714844 295.050781 327.714844 C 294.679688 330 292.976562 330.90625 291.058594 331.4375 C 289.460938 331.914062 287.8125 332.183594 286.164062 332.554688 C 285.949219 332.609375 285.84375 332.875 285.683594 333.03125 C 220.902344 333.03125 156.179688 333.03125 91.398438 333.03125 C 84 331.382812 80.59375 326.332031 79.6875 319.203125 C 79.796875 232.8125 79.796875 146.425781 79.796875 60.089844 Z M 79.796875 60.089844 "/>
<path fill-rule="nonzero" fill="rgb(94.898987%, 21.958923%, 21.958923%)" fill-opacity="1" d="M 262.371094 321.277344 C 261.25 321.277344 260.238281 321.277344 259.175781 321.277344 C 208.609375 321.277344 158.042969 321.277344 107.527344 321.277344 C 105.558594 321.277344 103.640625 321.222656 101.671875 321.4375 C 97.253906 321.863281 94.21875 318.511719 93.6875 314.308594 C 93.527344 313.246094 93.582031 312.179688 93.582031 311.117188 C 93.582031 309.945312 93.6875 308.828125 93.6875 307.660156 C 93.6875 244.464844 93.6875 181.265625 93.6875 118.070312 C 93.6875 116.210938 93.582031 114.347656 93.582031 112.488281 C 93.582031 111.261719 93.582031 109.984375 93.847656 108.816406 C 94.273438 106.953125 95.125 106.421875 97.09375 106.367188 C 99.0625 106.316406 100.980469 106.367188 102.949219 106.367188 C 116.097656 106.367188 129.191406 106.316406 142.339844 106.476562 C 150.75 106.527344 158.785156 104.667969 166.558594 101.632812 C 174.328125 98.601562 180.984375 93.867188 187.316406 88.65625 C 195.140625 82.164062 203.179688 75.996094 211.800781 70.515625 C 214.996094 68.492188 218.347656 66.632812 222.128906 65.835938 C 222.980469 65.675781 223.832031 65.460938 224.738281 65.460938 C 236.074219 65.460938 247.464844 65.460938 258.804688 65.460938 C 261.730469 65.460938 263.222656 66.792969 263.539062 69.664062 C 263.648438 70.621094 263.59375 71.632812 263.59375 72.589844 C 263.539062 101.316406 263.539062 130.039062 263.488281 158.765625 C 263.378906 194.9375 263.167969 231.058594 263.007812 267.230469 C 262.953125 275.582031 263.007812 283.878906 262.953125 292.234375 C 262.902344 301.542969 262.742188 310.796875 262.582031 320.105469 C 262.476562 320.320312 262.421875 320.691406 262.371094 321.277344 Z M 262.371094 321.277344 "/>
<path fill-rule="nonzero" fill="rgb(88.62915%, 20.388794%, 20.388794%)" fill-opacity="1" d="M 294.304688 299.253906 C 288.929688 295.265625 275.835938 295.15625 269.289062 298.667969 C 269.289062 297.710938 269.289062 296.808594 269.289062 295.957031 C 269.289062 227.972656 269.289062 159.988281 269.234375 92.007812 C 269.234375 89.773438 269.875 88.441406 271.949219 87.804688 C 273.441406 87.324219 274.984375 86.792969 276.527344 86.6875 C 279.882812 86.527344 283.234375 86.632812 286.640625 86.632812 C 288.824219 86.632812 290.738281 87.644531 292.601562 88.65625 C 293.933594 89.398438 294.09375 90.730469 294.359375 92.007812 C 294.464844 92.589844 294.359375 93.230469 294.359375 93.867188 C 294.359375 161.320312 294.359375 228.769531 294.359375 296.222656 C 294.304688 297.234375 294.304688 298.191406 294.304688 299.253906 Z M 294.304688 299.253906 "/>
<path fill-rule="nonzero" fill="rgb(94.898987%, 21.958923%, 21.958923%)" fill-opacity="1" d="M 294.253906 48.121094 C 294.253906 51.949219 294.253906 55.726562 294.253906 59.503906 C 292.335938 58.757812 290.582031 57.800781 288.769531 57.484375 C 285.84375 57.003906 282.808594 56.84375 279.828125 56.84375 C 266.519531 56.792969 253.214844 56.792969 239.90625 56.898438 C 235.59375 56.949219 231.285156 57.269531 226.972656 57.855469 C 220.265625 58.8125 214.089844 61.472656 208.289062 64.875 C 201.210938 69.132812 194.664062 74.1875 188.222656 79.238281 C 183.273438 83.121094 178.425781 87.113281 172.890625 90.089844 C 168.847656 92.273438 164.640625 94.132812 160.171875 95.304688 C 159.210938 95.570312 158.09375 95.359375 157.296875 95.835938 C 156.335938 96.316406 155.539062 97.058594 154.421875 96.316406 C 153.199219 98.125 151.226562 96.582031 149.683594 97.484375 C 148.671875 98.070312 147.234375 97.910156 145.957031 97.910156 C 143.617188 97.910156 141.328125 98.015625 138.984375 98.015625 C 136.589844 97.964844 134.195312 97.910156 131.800781 97.910156 C 119.714844 97.910156 107.6875 97.910156 95.605469 97.910156 C 94.910156 97.910156 94.167969 97.964844 93.476562 97.859375 C 91.664062 97.644531 90.972656 96.953125 90.972656 95.144531 C 90.972656 83.175781 90.761719 71.207031 91.027344 59.238281 C 91.1875 52.90625 94.433594 48.28125 101.617188 46.789062 C 103.164062 46.472656 104.757812 46.3125 106.355469 46.3125 C 165.707031 46.3125 225.054688 46.3125 284.40625 46.257812 C 287.757812 46.257812 291.007812 46.898438 294.253906 48.121094 Z M 294.253906 48.121094 "/>
<path fill-rule="nonzero" fill="rgb(94.898987%, 21.958923%, 21.958923%)" fill-opacity="1" d="M 295.476562 326.597656 C 295.476562 241.164062 295.476562 156.105469 295.476562 70.835938 C 296.117188 70.78125 296.753906 70.726562 297.339844 70.726562 C 308.09375 70.726562 318.792969 70.570312 329.542969 70.835938 C 338.328125 71.046875 346.46875 73.8125 354.136719 78.070312 C 361.425781 82.164062 367.976562 87.273438 374.414062 92.484375 C 380.75 97.589844 387.136719 102.59375 394.640625 105.941406 C 400.390625 108.496094 406.351562 110.253906 412.582031 111.210938 C 417.15625 111.902344 421.734375 112.273438 426.3125 112.007812 C 442.175781 111.15625 458.039062 111.847656 473.898438 111.636719 C 474.21875 111.636719 474.589844 111.6875 475.125 111.6875 C 475.175781 112.488281 475.230469 113.230469 475.230469 114.027344 C 475.230469 178.765625 475.285156 243.453125 475.175781 308.191406 C 475.175781 311.863281 474.964844 315.636719 473.582031 319.097656 C 471.875 323.296875 469.003906 325.957031 464.265625 326.117188 C 461.179688 326.222656 458.089844 326.488281 455.003906 326.488281 C 402.945312 326.488281 350.835938 326.488281 298.777344 326.488281 C 297.765625 326.597656 296.753906 326.597656 295.476562 326.597656 Z M 295.476562 326.597656 "/>
<path fill-rule="nonzero" fill="rgb(94.898987%, 21.958923%, 21.958923%)" fill-opacity="1" d="M 262.902344 65.460938 C 264.65625 65.460938 266.253906 65.460938 268.222656 65.460938 C 268.222656 87.164062 268.222656 108.816406 268.222656 130.519531 C 268.222656 152.4375 268.222656 174.300781 268.222656 196.214844 C 268.222656 218.023438 268.222656 239.835938 268.222656 261.644531 C 268.222656 283.347656 268.171875 305.050781 268.222656 327.074219 C 267.214844 327.128906 266.359375 327.183594 265.5625 327.183594 C 233.730469 327.128906 201.847656 327.183594 170.015625 327.074219 C 146.863281 327.023438 123.761719 326.757812 100.609375 326.648438 C 97.199219 326.648438 94.21875 325.53125 92.039062 323.085938 C 90.441406 321.332031 89.214844 319.097656 88.898438 316.597656 C 88.578125 314.042969 88.3125 311.488281 88.3125 308.9375 C 88.257812 242.28125 88.3125 175.628906 88.3125 108.921875 C 88.3125 108.125 88.3125 107.378906 88.3125 106.476562 C 90.175781 106.476562 91.824219 106.476562 93.527344 106.476562 C 92.464844 108.867188 91.71875 111.261719 92.515625 113.921875 C 92.730469 114.5625 92.570312 115.304688 92.570312 116.050781 C 92.570312 180.152344 92.570312 244.25 92.570312 308.351562 C 92.570312 310.371094 92.410156 312.394531 92.625 314.363281 C 93.207031 320.160156 97.574219 323.246094 103.375 322.714844 C 104.601562 322.605469 105.824219 322.394531 107.046875 322.394531 C 158.253906 322.394531 209.40625 322.394531 260.613281 322.394531 C 261.570312 322.394531 262.527344 322.394531 263.753906 322.394531 C 263.804688 321.542969 263.859375 320.746094 263.859375 320 C 263.914062 302.074219 263.964844 284.199219 263.964844 266.273438 C 264.019531 244.039062 263.964844 221.75 264.019531 199.511719 C 264.125 163.289062 264.339844 127.007812 264.5 90.78125 C 264.5 84.664062 264.5 78.546875 264.605469 72.429688 C 264.605469 69.984375 264.445312 67.644531 262.902344 65.460938 Z M 262.902344 65.460938 "/>
<path fill-rule="nonzero" fill="rgb(63.919067%, 6.669617%, 6.669617%)" fill-opacity="1" d="M 82.667969 323.511719 C 81.550781 320.796875 80.804688 318.40625 80.804688 315.796875 C 80.804688 313.5625 80.804688 311.382812 80.804688 309.148438 C 80.804688 229.355469 80.804688 149.5625 80.804688 69.769531 C 80.804688 67.75 80.699219 65.675781 80.753906 63.652344 C 80.914062 56.523438 84.160156 51.363281 90.707031 48.492188 C 92.675781 47.640625 94.859375 47.269531 97.042969 46.84375 C 94.167969 48.546875 92.144531 50.832031 91.078125 53.867188 C 90.492188 55.566406 89.910156 57.429688 89.910156 59.183594 C 89.800781 71.261719 89.855469 83.28125 89.855469 95.359375 C 89.855469 96.050781 89.960938 96.742188 90.015625 97.539062 C 87.832031 98.230469 87.140625 99.933594 87.140625 102.324219 C 87.246094 123.765625 87.246094 145.09375 87.246094 166.480469 C 87.246094 212.917969 87.246094 259.410156 87.246094 305.851562 C 87.246094 314.042969 87.246094 314.042969 83.628906 321.488281 C 83.363281 322.074219 83.09375 322.605469 82.667969 323.511719 Z M 82.667969 323.511719 "/>
<path fill-rule="nonzero" fill="rgb(60.389709%, 1.959229%, 1.959229%)" fill-opacity="1" d="M 272.324219 331.808594 C 215.15625 331.808594 157.722656 331.808594 99.757812 331.808594 C 100.5 330.265625 101.191406 329.042969 101.886719 327.660156 C 102.84375 327.660156 103.746094 327.660156 104.601562 327.660156 C 124.027344 327.660156 143.457031 327.339844 162.886719 327.765625 C 197.109375 328.511719 231.335938 327.925781 265.5625 328.191406 C 266.785156 328.191406 267.691406 328.40625 268.597656 329.363281 C 269.714844 330.375 271.152344 331.066406 272.324219 331.808594 Z M 272.324219 331.808594 "/>
<path fill-rule="nonzero" fill="rgb(88.62915%, 20.388794%, 20.388794%)" fill-opacity="1" d="M 294.304688 77.324219 C 286.003906 73.335938 277.753906 73.546875 269.289062 76.84375 C 269.289062 71.84375 269.234375 66.84375 269.34375 61.792969 C 269.34375 61.257812 269.875 60.410156 270.40625 60.195312 C 272.324219 59.34375 274.292969 58.226562 276.316406 58.121094 C 280.359375 57.855469 284.460938 57.375 288.449219 58.492188 C 289.886719 58.867188 291.273438 59.503906 292.601562 60.195312 C 293.878906 60.886719 294.359375 62.164062 294.359375 63.546875 C 294.304688 68.175781 294.304688 72.75 294.304688 77.324219 Z M 294.304688 77.324219 "/>
<path fill-rule="nonzero" fill="rgb(88.62915%, 20.388794%, 20.388794%)" fill-opacity="1" d="M 294.304688 325.320312 C 286.003906 321.753906 277.859375 321.863281 269.449219 324.789062 C 269.394531 324.414062 269.289062 323.832031 269.289062 323.296875 C 269.289062 319.945312 269.394531 316.542969 269.234375 313.191406 C 269.183594 311.488281 269.875 310.691406 271.257812 309.945312 C 273.335938 308.828125 275.625 308.457031 277.859375 308.246094 C 282.648438 307.765625 287.386719 307.871094 291.804688 310.105469 C 293.507812 310.957031 294.253906 312.339844 294.253906 314.09375 C 294.304688 317.820312 294.304688 321.542969 294.304688 325.320312 Z M 294.304688 325.320312 "/>
<path fill-rule="nonzero" fill="rgb(60.389709%, 1.959229%, 1.959229%)" fill-opacity="1" d="M 88.3125 105.199219 C 88.3125 103.65625 88.257812 102.324219 88.3125 101.050781 C 88.363281 99.824219 89.109375 99.132812 90.335938 98.976562 C 90.707031 98.921875 91.027344 98.921875 91.398438 98.921875 C 105.769531 98.921875 120.089844 98.921875 134.460938 98.921875 C 134.992188 98.921875 135.472656 98.976562 136.164062 99.027344 C 136.003906 101.421875 134.832031 103.230469 133.820312 105.199219 C 118.707031 105.199219 103.695312 105.199219 88.3125 105.199219 Z M 88.3125 105.199219 "/>
<path fill-rule="nonzero" fill="rgb(60.389709%, 1.959229%, 1.959229%)" fill-opacity="1" d="M 152.1875 104.242188 C 152.929688 102.21875 153.675781 100.144531 154.527344 98.175781 C 154.632812 97.964844 155.273438 97.964844 156.125 97.75 C 155.328125 99.878906 154.742188 101.582031 154.101562 103.285156 C 155.859375 102.539062 156.335938 101.050781 156.761719 99.667969 C 157.347656 97.75 158.414062 96.898438 160.328125 96.367188 C 169.007812 93.972656 176.671875 89.71875 183.75 84.1875 C 190.296875 79.027344 197.003906 74.078125 203.65625 69.027344 C 203.925781 68.8125 204.242188 68.707031 204.988281 68.335938 C 204.722656 69.453125 204.507812 70.195312 204.351562 70.886719 C 203.5 73.8125 201.953125 76.046875 199.292969 77.855469 C 193.96875 81.578125 188.914062 85.730469 183.855469 89.824219 C 176.03125 96.15625 167.460938 100.941406 157.5625 103.175781 C 155.964844 103.550781 154.316406 103.867188 152.71875 104.1875 C 152.558594 104.453125 152.398438 104.453125 152.1875 104.242188 Z M 152.1875 104.242188 "/>
<path fill-rule="nonzero" fill="rgb(60.389709%, 1.959229%, 1.959229%)" fill-opacity="1" d="M 223.992188 64.183594 C 224.628906 62.429688 225.214844 60.886719 225.90625 59.023438 C 227.664062 58.867188 229.527344 58.601562 231.441406 58.441406 C 243.898438 57.589844 256.355469 58.015625 268.863281 57.90625 C 269.769531 57.90625 270.621094 57.90625 271.898438 57.90625 C 270.9375 58.492188 270.246094 58.8125 269.660156 59.34375 C 268.96875 59.984375 268.171875 60.675781 267.90625 61.472656 C 267.691406 62.164062 268.171875 63.121094 268.332031 64.132812 C 253.53125 64.183594 238.949219 64.183594 223.992188 64.183594 Z M 223.992188 64.183594 "/>
<path fill-rule="nonzero" fill="rgb(88.62915%, 20.388794%, 20.388794%)" fill-opacity="1" d="M 286.746094 297.445312 C 286.746094 301.007812 286.746094 304.042969 286.746094 307.285156 C 280.734375 306.488281 274.929688 306.648438 269.289062 309.628906 C 269.289062 306.648438 269.289062 303.933594 269.289062 301.222656 C 269.289062 300.265625 269.714844 299.734375 270.566406 299.46875 C 272.484375 298.828125 274.34375 297.976562 276.261719 297.605469 C 279.667969 297.019531 283.074219 297.339844 286.746094 297.445312 Z M 286.746094 297.445312 "/>
<path fill-rule="nonzero" fill="rgb(88.62915%, 20.388794%, 20.388794%)" fill-opacity="1" d="M 269.34375 87.699219 C 269.34375 84.558594 269.34375 81.578125 269.34375 78.441406 C 274.769531 74.984375 280.625 75.304688 286.695312 75.886719 C 286.695312 79.1875 286.695312 82.21875 286.695312 85.515625 C 280.734375 84.929688 274.929688 84.878906 269.34375 87.699219 Z M 269.34375 87.699219 "/>
<path fill-rule="nonzero" fill="rgb(60.389709%, 1.959229%, 1.959229%)" fill-opacity="1" d="M 281.691406 323.671875 C 284.140625 323.9375 286.589844 324.042969 288.984375 324.523438 C 290.3125 324.789062 291.644531 325.480469 292.816406 326.171875 C 294.09375 326.914062 294.148438 328.246094 292.921875 329.203125 C 292.390625 329.628906 291.75 330 291.113281 330.214844 C 285.042969 332.449219 278.921875 332.394531 272.75 330.640625 C 271.84375 330.375 270.9375 329.894531 270.195312 329.363281 C 268.757812 328.351562 268.917969 326.96875 270.460938 326.011719 C 272.75 324.574219 275.304688 323.988281 277.964844 323.9375 C 279.1875 323.9375 280.46875 323.9375 281.691406 323.9375 C 281.691406 323.832031 281.691406 323.777344 281.691406 323.671875 Z M 281.691406 323.671875 "/>
<path fill-rule="nonzero" fill="rgb(88.62915%, 20.388794%, 20.388794%)" fill-opacity="1" d="M 288.023438 85.78125 C 288.023438 82.484375 288.023438 79.453125 288.023438 76.046875 C 288.929688 76.3125 289.675781 76.527344 290.527344 76.738281 C 290.527344 79.878906 290.527344 82.855469 290.527344 86.15625 C 289.621094 86.046875 288.878906 85.941406 288.023438 85.78125 Z M 288.023438 85.78125 "/>
<path fill-rule="nonzero" fill="rgb(88.62915%, 20.388794%, 20.388794%)" fill-opacity="1" d="M 288.023438 307.394531 C 288.023438 304.09375 288.023438 301.0625 288.023438 297.765625 C 288.984375 298.03125 289.730469 298.296875 290.472656 298.507812 C 290.472656 301.753906 290.472656 304.839844 290.472656 308.136719 C 289.570312 307.820312 288.824219 307.605469 288.023438 307.394531 Z M 288.023438 307.394531 "/>
<path fill-rule="nonzero" fill="rgb(88.62915%, 20.388794%, 20.388794%)" fill-opacity="1" d="M 294.304688 88.390625 C 293.242188 87.804688 292.496094 87.378906 291.804688 86.953125 C 291.804688 83.8125 291.804688 80.78125 291.804688 77.539062 C 293.667969 78.335938 294.253906 79.71875 294.304688 81.367188 C 294.359375 83.601562 294.304688 85.78125 294.304688 88.390625 Z M 294.304688 88.390625 "/>
<path fill-rule="nonzero" fill="rgb(88.62915%, 20.388794%, 20.388794%)" fill-opacity="1" d="M 294.304688 310.160156 C 293.296875 309.574219 292.496094 309.203125 291.804688 308.777344 C 291.804688 305.636719 291.804688 302.605469 291.804688 299.359375 C 293.773438 300.050781 294.253906 301.542969 294.304688 303.136719 C 294.359375 305.320312 294.304688 307.550781 294.304688 310.160156 Z M 294.304688 310.160156 "/>
<path fill-rule="nonzero" fill="rgb(58.039856%, 1.959229%, 1.959229%)" fill-opacity="1" d="M 87.460938 316.011719 C 88.523438 317.871094 88.152344 319.414062 87.355469 320.957031 C 86.449219 322.765625 85.648438 324.734375 84.691406 326.96875 C 84 326.066406 83.574219 325.480469 83.253906 325.105469 C 84.691406 321.96875 86.074219 319.097656 87.460938 316.011719 Z M 87.460938 316.011719 "/>
<path fill-rule="nonzero" fill="rgb(56.469727%, 1.959229%, 1.959229%)" fill-opacity="1" d="M 204.457031 73.761719 C 205.253906 71.632812 205.945312 69.398438 206.957031 67.375 C 207.382812 66.578125 208.449219 66.101562 209.621094 65.675781 C 208.875 67.75 208.34375 69.929688 207.382812 71.898438 C 206.957031 72.804688 205.734375 73.335938 204.882812 73.972656 C 204.722656 73.917969 204.5625 73.8125 204.457031 73.761719 Z M 204.457031 73.761719 "/>
<path fill-rule="nonzero" fill="rgb(58.428955%, 1.959229%, 1.959229%)" fill-opacity="1" d="M 137.601562 105.25 C 136.695312 105.25 136.109375 105.25 135.527344 105.25 C 135.527344 105.039062 135.417969 104.878906 135.472656 104.71875 C 136.058594 103.335938 136.644531 102.007812 137.230469 100.625 C 137.65625 99.613281 138.238281 98.761719 139.785156 99.027344 C 139.675781 101.316406 138.082031 103.019531 137.601562 105.25 Z M 137.601562 105.25 "/>
<path fill-rule="nonzero" fill="rgb(57.649231%, 1.959229%, 1.959229%)" fill-opacity="1" d="M 86.5 328.832031 C 86.234375 328.351562 85.648438 327.765625 85.757812 327.5 C 86.660156 325.265625 87.726562 323.085938 89.003906 321.011719 C 90.386719 324.097656 87.78125 326.117188 87.140625 328.671875 C 86.929688 328.671875 86.714844 328.722656 86.5 328.832031 Z M 86.5 328.832031 "/>
<path fill-rule="nonzero" fill="rgb(58.428955%, 1.959229%, 1.959229%)" fill-opacity="1" d="M 138.878906 104.878906 C 139.570312 103.285156 140.261719 101.6875 140.953125 100.09375 C 141.378906 99.082031 141.964844 98.761719 143.296875 99.292969 C 142.5 101.15625 141.804688 103.019531 140.902344 104.773438 C 140.6875 105.199219 139.785156 105.25 139.199219 105.464844 C 139.144531 105.25 139.039062 105.09375 138.878906 104.878906 Z M 138.878906 104.878906 "/>
<path fill-rule="nonzero" fill="rgb(56.858826%, 1.959229%, 1.959229%)" fill-opacity="1" d="M 152.1875 104.242188 C 152.34375 104.242188 152.558594 104.242188 152.71875 104.242188 C 151.066406 104.878906 151.066406 104.878906 148.78125 104.453125 C 149.578125 102.59375 150.269531 100.730469 151.175781 98.976562 C 151.386719 98.550781 152.292969 98.496094 153.144531 98.175781 C 152.34375 100.09375 151.707031 101.527344 151.121094 102.964844 C 150.855469 103.816406 151.226562 104.292969 152.1875 104.242188 Z M 152.1875 104.242188 "/>
<path fill-rule="nonzero" fill="rgb(57.649231%, 1.959229%, 1.959229%)" fill-opacity="1" d="M 142.019531 105.675781 C 144.839844 99.132812 144.839844 99.132812 146.648438 99.292969 C 145.796875 101.207031 145.105469 103.019531 144.203125 104.773438 C 143.9375 105.199219 143.082031 105.25 142.019531 105.675781 Z M 142.019531 105.675781 "/>
<path fill-rule="nonzero" fill="rgb(56.858826%, 1.959229%, 1.959229%)" fill-opacity="1" d="M 87.886719 329.683594 C 88.84375 327.605469 89.75 325.746094 90.601562 323.882812 C 91.503906 324.257812 92.144531 324.523438 91.773438 325.480469 C 91.1875 326.863281 90.601562 328.191406 90.015625 329.574219 C 89.484375 330.800781 88.789062 330.480469 87.886719 329.683594 Z M 87.886719 329.683594 "/>
<path fill-rule="nonzero" fill="rgb(58.039856%, 1.959229%, 1.959229%)" fill-opacity="1" d="M 147.34375 105.199219 C 146.917969 105.199219 146.222656 105.199219 145.425781 105.199219 C 146.277344 103.285156 147.023438 101.527344 147.820312 99.773438 C 148.085938 99.132812 148.140625 99.132812 149.683594 99.132812 C 148.886719 101.207031 148.140625 103.125 147.34375 105.199219 Z M 147.34375 105.199219 "/>
<path fill-rule="nonzero" fill="rgb(56.079102%, 1.959229%, 1.959229%)" fill-opacity="1" d="M 209.140625 70.410156 C 209.78125 68.707031 210.417969 67.058594 211.003906 65.355469 C 211.375 64.34375 212.121094 63.972656 213.503906 63.8125 C 212.226562 66.417969 212.066406 69.238281 209.621094 70.726562 C 209.460938 70.621094 209.300781 70.515625 209.140625 70.410156 Z M 209.140625 70.410156 "/>
<path fill-rule="nonzero" fill="rgb(56.469727%, 1.959229%, 1.959229%)" fill-opacity="1" d="M 220.691406 60.886719 C 220 63.066406 219.785156 65.621094 216.433594 66.632812 C 218.03125 64.398438 217.550781 61.417969 220.691406 60.886719 Z M 220.691406 60.886719 "/>
<path fill-rule="nonzero" fill="rgb(58.428955%, 1.959229%, 1.959229%)" fill-opacity="1" d="M 93.050781 332.128906 C 93.902344 330.375 94.484375 329.097656 95.179688 327.875 C 95.390625 327.554688 95.976562 327.449219 96.347656 327.234375 C 96.507812 327.605469 96.882812 328.03125 96.773438 328.351562 C 96.347656 329.46875 95.871094 330.640625 95.179688 331.648438 C 94.964844 331.914062 94.167969 331.863281 93.050781 332.128906 Z M 93.050781 332.128906 "/>
<path fill-rule="nonzero" fill="rgb(57.249451%, 1.959229%, 1.959229%)" fill-opacity="1" d="M 213.558594 68.015625 C 213.238281 66.367188 214.464844 65.25 214.78125 63.867188 C 214.890625 63.335938 215.367188 62.855469 215.792969 62.429688 C 216.007812 62.21875 216.433594 62.269531 216.804688 62.21875 C 216.007812 65.992188 215.476562 67.003906 213.558594 68.015625 Z M 213.558594 68.015625 "/>
<path fill-rule="nonzero" fill="rgb(54.508972%, 1.959229%, 1.959229%)" fill-opacity="1" d="M 220.796875 64.609375 C 221.808594 62.800781 221.542969 60.300781 224.257812 59.398438 C 223.351562 64.078125 222.980469 64.664062 220.796875 64.609375 Z M 220.796875 64.609375 "/>
<path fill-rule="nonzero" fill="rgb(55.688477%, 1.959229%, 1.959229%)" fill-opacity="1" d="M 90.707031 331.011719 C 91.347656 329.574219 91.929688 328.085938 92.570312 326.648438 C 92.730469 326.382812 93.207031 326.222656 93.527344 326.066406 C 93.6875 326.488281 94.058594 326.96875 93.953125 327.339844 C 93.582031 328.511719 93.101562 329.628906 92.464844 330.691406 C 92.199219 331.117188 91.453125 331.277344 90.921875 331.542969 C 90.867188 331.382812 90.8125 331.222656 90.707031 331.011719 Z M 90.707031 331.011719 "/>
<path fill-rule="nonzero" fill="rgb(56.469727%, 1.959229%, 1.959229%)" fill-opacity="1" d="M 100.714844 327.5 C 99.328125 329.363281 99.328125 331.648438 96.988281 332.449219 C 96.882812 330.640625 97.519531 329.257812 98.425781 328.03125 C 98.746094 327.660156 99.648438 327.765625 100.714844 327.5 Z M 100.714844 327.5 "/>
<path fill-rule="nonzero" fill="rgb(1.959229%, 1.959229%, 1.959229%)" fill-opacity="1" d="M 299.097656 136.851562 C 299.097656 131.902344 299.097656 126.902344 299.042969 121.953125 C 298.9375 109.984375 298.777344 98.070312 298.722656 86.101562 C 298.722656 84.558594 298.9375 82.910156 299.363281 81.421875 C 300.109375 78.761719 301.652344 77.695312 304.417969 77.644531 C 308.519531 77.589844 312.5625 77.644531 316.664062 77.644531 C 323.582031 77.644531 330.5 77.695312 337.421875 77.644531 C 341.308594 77.589844 344.875 78.761719 348.226562 80.570312 C 357.542969 85.570312 365.84375 92.007812 374.097656 98.550781 C 379.949219 103.230469 385.648438 108.175781 392.511719 111.476562 C 396.824219 113.550781 401.082031 115.625 405.925781 116.210938 C 406.671875 116.316406 407.308594 116.847656 408.054688 117.0625 C 414.015625 118.710938 420.085938 118.710938 426.207031 118.65625 C 437.011719 118.605469 447.871094 118.605469 458.675781 118.605469 C 461.179688 118.605469 463.625 118.710938 466.128906 118.496094 C 469.746094 118.230469 471.664062 119.347656 471.664062 123.871094 C 471.558594 155.09375 471.609375 186.269531 471.609375 217.492188 C 471.609375 248.453125 471.609375 279.359375 471.609375 310.320312 C 471.609375 312.765625 471.292969 315.054688 470.171875 317.234375 C 468.417969 320.636719 465.648438 322.289062 461.871094 322.289062 C 408.746094 322.289062 355.625 322.339844 302.503906 322.339844 C 302.238281 322.339844 301.972656 322.339844 301.703125 322.339844 C 299.949219 322.289062 299.84375 322.128906 299.789062 320.265625 C 299.789062 319.894531 299.789062 319.574219 299.789062 319.203125 C 299.734375 292.976562 299.734375 266.753906 299.683594 240.472656 "/>
<path fill-rule="nonzero" fill="rgb(68.629456%, 68.629456%, 68.629456%)" fill-opacity="1" stroke-width="1" stroke-linecap="butt" stroke-linejoin="miter" stroke="rgb(0%, 0%, 0%)" stroke-opacity="1" stroke-miterlimit="10" d="M 254.300308 135.999055 C 298.801786 135.999055 343.303265 135.999055 387.797405 135.999055 C 395.598374 135.999055 399.803411 140.001129 400.001554 147.799667 C 400.001554 148.996618 400.001554 150.098106 400.001554 151.3024 C 400.001554 222.598074 400.001554 293.901092 400.001554 365.196766 C 400.001554 366.900401 400.001554 368.501231 399.898813 370.197523 C 399.399786 376.498037 395.202087 380.602917 388.898201 380.896647 C 387.401119 380.999453 385.896699 380.999453 384.399618 380.999453 C 309.09789 380.999453 233.803502 380.999453 158.501774 381.102258 C 155.096648 381.102258 152.696915 380.301843 150.201779 377.797793 C 138.100371 365.402377 125.80082 353.197885 113.398528 341.103542 C 110.903392 338.702297 109.897999 336.301053 109.897999 332.901125 C 110.00074 272.400038 110.00074 211.89895 110.00074 151.500668 C 110.00074 150.002644 110.00074 148.497276 110.00074 146.999252 C 109.802597 140.001129 113.398528 136.10186 120.399585 136.10186 C 164.996466 135.999055 209.703426 135.999055 254.300308 135.999055 Z M 254.300308 135.999055 " transform="matrix(0.532286, 0, 0, 0.531951, 42.002869, 42.002869)"/>
<path fill-rule="nonzero" fill="rgb(39.608765%, 39.608765%, 39.608765%)" fill-opacity="1" d="M 250.765625 245.738281 C 249.328125 246.910156 247.996094 247.335938 246.453125 247.335938 C 205.839844 247.335938 165.226562 247.335938 124.613281 247.335938 C 123.28125 247.335938 122.324219 246.964844 121.367188 246.007812 C 113.808594 238.398438 106.25 230.792969 98.636719 223.238281 C 97.734375 222.335938 97.414062 221.429688 97.414062 220.207031 C 97.46875 187.917969 97.414062 155.679688 97.46875 123.390625 C 97.46875 121.15625 98.105469 119.082031 99.542969 116.847656 C 99.542969 124.933594 99.597656 132.648438 99.597656 140.359375 C 99.597656 148.234375 99.597656 156.160156 99.597656 164.03125 C 99.597656 171.851562 99.597656 179.617188 99.597656 187.4375 C 99.597656 198.238281 99.648438 209.089844 99.542969 219.886719 C 99.542969 221.429688 99.96875 222.492188 101.035156 223.609375 C 107.898438 230.367188 114.765625 237.230469 121.578125 244.089844 C 122.804688 245.367188 124.082031 245.738281 125.785156 245.738281 C 166.769531 245.6875 207.757812 245.6875 248.6875 245.6875 C 249.222656 245.738281 249.859375 245.738281 250.765625 245.738281 Z M 250.765625 245.738281 "/>
<path fill-rule="nonzero" fill="rgb(18.818665%, 47.839355%, 98.039246%)" fill-opacity="1" stroke-width="1" stroke-linecap="butt" stroke-linejoin="miter" stroke="rgb(13.729858%, 12.159729%, 12.548828%)" stroke-opacity="1" stroke-miterlimit="10" d="M 134.900726 390.699894 C 145.299571 390.597089 153.900451 398.6967 154.003192 408.896483 C 154.098594 419.698413 145.996742 427.599756 135.502494 428.400171 C 124.399141 429.200586 115.702859 419.103609 115.798261 410.299045 C 115.996404 398.601238 123.100202 390.898162 134.900726 390.699894 Z M 134.900726 390.699894 " transform="matrix(0.532286, 0, 0, 0.531951, 42.002869, 42.002869)"/>
<path fill-rule="nonzero" fill="rgb(98.039246%, 39.608765%, 1.959229%)" fill-opacity="1" stroke-width="1" stroke-linecap="butt" stroke-linejoin="miter" stroke="rgb(13.729858%, 12.159729%, 12.548828%)" stroke-opacity="1" stroke-miterlimit="10" d="M 270.100387 404.997214 C 276.800561 404.997214 283.397993 404.901752 290.098166 404.997214 C 294.00232 404.997214 295.903026 406.700849 296.196571 410.100777 C 296.497455 413.096825 295.499401 414.903266 292.703381 415.997412 C 291.000818 416.599559 289.202853 417.003438 287.397549 417.003438 C 275.699765 417.0989 264.097384 417.0989 252.399601 417.003438 C 250.601636 417.003438 248.80367 416.599559 247.101107 415.997412 C 244.202347 414.903266 243.196954 412.597484 243.798722 409.49863 C 244.297749 406.803655 246.103053 405.202825 249.001814 405.100019 C 256.098273 404.901752 263.09933 404.997214 270.100387 404.997214 Z M 270.100387 404.997214 " transform="matrix(0.532286, 0, 0, 0.531951, 42.002869, 42.002869)"/>
<path fill-rule="nonzero" fill="rgb(31.369019%, 98.039246%, 1.959229%)" fill-opacity="1" stroke-width="1" stroke-linecap="butt" stroke-linejoin="miter" stroke="rgb(13.729858%, 12.159729%, 12.548828%)" stroke-opacity="1" stroke-miterlimit="10" d="M 198.600073 417.003438 C 192.897954 417.003438 187.298576 417.0989 181.596457 417.003438 C 179.703089 417.003438 177.596901 416.599559 175.798936 415.997412 C 173.098318 415.101534 171.601237 412.296411 171.997523 409.696898 C 172.401148 407.200191 174.800881 405.100019 177.596901 404.997214 C 191.599015 404.901752 205.498389 404.901752 219.500503 404.997214 C 222.399264 404.997214 224.703595 407.097385 224.997141 409.696898 C 225.400765 412.502022 224.101827 414.998729 221.298469 415.901949 C 219.603244 416.496753 217.79794 416.797827 215.999975 416.900632 C 210.202454 417.0989 204.397594 417.003438 198.600073 417.003438 Z M 198.600073 417.003438 " transform="matrix(0.532286, 0, 0, 0.531951, 42.002869, 42.002869)"/>
<path fill-rule="nonzero" fill="rgb(98.039246%, 98.039246%, 98.039246%)" fill-opacity="1" d="M 116.84375 91.6875 C 107.421875 92.21875 95.816406 83.707031 95.871094 70.515625 C 95.921875 59.769531 104.707031 49.503906 117.109375 49.554688 C 129.511719 49.609375 138.238281 59.929688 138.238281 70.675781 C 138.238281 83.707031 126.582031 92.378906 116.84375 91.6875 Z M 116.84375 91.6875 "/>
<g clip-path="url(#clip-1)">
<path fill="none" stroke-width="1" stroke-linecap="butt" stroke-linejoin="miter" stroke="rgb(0%, 0%, 0%)" stroke-opacity="1" stroke-miterlimit="10" d="M 140.602845 93.400826 C 122.902059 94.399508 101.098976 78.398553 101.201717 53.600377 C 101.29712 33.39908 117.801708 14.101002 141.101872 14.196465 C 164.402037 14.29927 180.796546 33.700153 180.796546 53.901451 C 180.796546 78.398553 158.898061 94.700582 140.602845 93.400826 Z M 140.602845 93.400826 " transform="matrix(0.532286, 0, 0, 0.531951, 42.002869, 42.002869)"/>
</g>
<path fill-rule="nonzero" fill="rgb(30.979919%, 97.648621%, 1.959229%)" fill-opacity="1" stroke-width="1" stroke-linecap="butt" stroke-linejoin="miter" stroke="rgb(0%, 0%, 0%)" stroke-opacity="1" stroke-miterlimit="10" d="M 257.301809 17.802003 C 263.400214 17.802003 266.203573 20.599784 266.203573 26.496419 C 266.203573 31.901055 262.497562 35.90313 257.499952 35.90313 C 252.803226 35.90313 248.297305 31.497176 248.201902 26.70203 C 247.996421 21.89954 252.201458 17.802003 257.301809 17.802003 Z M 257.301809 17.802003 " transform="matrix(0.532286, 0, 0, 0.531951, 42.002869, 42.002869)"/>
<path fill-rule="nonzero" fill="rgb(97.648621%, 1.959229%, 1.959229%)" fill-opacity="1" stroke-width="1" stroke-linecap="butt" stroke-linejoin="miter" stroke="rgb(0%, 0%, 0%)" stroke-opacity="1" stroke-miterlimit="10" d="M 194.600517 17.802003 C 200.302636 17.802003 203.898567 21.003663 203.898567 26.400956 C 204.001308 31.599982 199.899011 35.90313 194.600517 35.90313 C 189.698309 35.90313 185.999637 31.79825 185.603351 26.70203 C 185.397869 22.097808 189.602907 16.898783 194.600517 17.802003 Z M 194.600517 17.802003 " transform="matrix(0.532286, 0, 0, 0.531951, 42.002869, 42.002869)"/>
<path fill-rule="nonzero" fill="rgb(97.648621%, 97.648621%, 1.959229%)" fill-opacity="1" stroke-width="1" stroke-linecap="butt" stroke-linejoin="miter" stroke="rgb(0%, 0%, 0%)" stroke-opacity="1" stroke-miterlimit="10" d="M 226.002533 17.699198 C 231.697314 17.699198 235.10244 21.003663 235.197842 26.496419 C 235.197842 31.702787 231.301027 35.800324 226.200677 35.800324 C 221.298469 35.90313 216.998029 31.599982 216.902627 26.70203 C 216.799886 21.503005 220.601299 17.699198 226.002533 17.699198 Z M 226.002533 17.699198 " transform="matrix(0.532286, 0, 0, 0.531951, 42.002869, 42.002869)"/>
<path fill-rule="nonzero" fill="rgb(94.898987%, 21.958923%, 21.958923%)" fill-opacity="1" d="M 300.109375 83.496094 C 301.226562 83.496094 302.078125 83.496094 302.929688 83.496094 C 312.617188 83.496094 322.25 83.601562 331.9375 83.441406 C 336.144531 83.386719 340.082031 84.292969 343.597656 86.421875 C 349.023438 89.71875 354.402344 93.175781 359.511719 96.898438 C 365.578125 101.316406 371.273438 106.261719 377.238281 110.785156 C 385.699219 117.273438 395.28125 121.371094 405.765625 123.390625 C 411.621094 124.507812 417.582031 124.773438 423.492188 124.347656 C 434.988281 123.550781 446.488281 124.082031 458.039062 123.921875 C 459.6875 123.921875 461.390625 124.082031 463.039062 124.347656 C 465.277344 124.667969 465.808594 125.414062 465.808594 127.753906 C 465.808594 189.621094 465.808594 251.484375 465.753906 313.402344 C 465.753906 315.265625 465.703125 317.128906 465.328125 318.9375 C 464.957031 320.90625 464.425781 321.171875 462.402344 321.277344 C 460.910156 321.332031 459.367188 321.332031 457.878906 321.332031 C 406.246094 321.332031 354.613281 321.332031 302.984375 321.332031 C 302.34375 321.332031 301.757812 321.332031 300.800781 321.332031 C 300.800781 320.371094 300.800781 319.523438 300.800781 318.671875 C 300.746094 302.285156 300.695312 285.847656 300.695312 269.464844 C 300.640625 248.613281 300.695312 227.8125 300.585938 206.960938 C 300.480469 172.382812 300.269531 137.859375 300.160156 103.285156 C 300.109375 96.792969 300.109375 90.304688 300.109375 83.496094 Z M 300.109375 83.496094 "/>
<path fill-rule="nonzero" fill="rgb(60.389709%, 1.959229%, 1.959229%)" fill-opacity="1" d="M 466.765625 319.203125 C 466.765625 316.648438 466.765625 314.46875 466.765625 312.234375 C 466.765625 254.359375 466.820312 196.480469 466.714844 138.605469 C 466.714844 134.617188 467.777344 131.210938 469.960938 127.382812 C 469.960938 128.816406 469.960938 129.722656 469.960938 130.625 C 469.960938 189.726562 469.960938 248.824219 469.960938 307.976562 C 469.960938 309.734375 470.015625 311.542969 469.90625 313.296875 C 469.800781 315.53125 469.054688 317.554688 466.765625 319.203125 Z M 466.765625 319.203125 "/>
<path fill-rule="nonzero" fill="rgb(60.389709%, 1.959229%, 1.959229%)" fill-opacity="1" d="M 389.957031 111.847656 C 389.320312 113.335938 388.785156 114.613281 388.148438 115.996094 C 385.59375 115.359375 383.570312 113.976562 381.65625 112.488281 C 374.574219 107.113281 367.601562 101.632812 360.523438 96.207031 C 358.074219 94.347656 355.519531 92.589844 352.910156 90.941406 C 351.792969 90.25 351.472656 89.507812 351.953125 88.335938 C 352.378906 87.324219 352.804688 86.261719 353.230469 85.089844 C 357.59375 87.484375 361.269531 90.464844 364.992188 93.335938 C 370.902344 97.910156 376.757812 102.644531 382.664062 107.167969 C 385.007812 108.921875 387.507812 110.253906 389.957031 111.847656 Z M 389.957031 111.847656 "/>
<path fill-rule="nonzero" fill="rgb(60.389709%, 1.959229%, 1.959229%)" fill-opacity="1" d="M 405.875 118.070312 C 406.617188 118.125 407.308594 118.125 408.003906 118.285156 C 411.78125 119.296875 415.5625 119.722656 419.445312 119.722656 C 433.179688 119.667969 446.914062 119.722656 460.644531 119.667969 C 461.496094 119.667969 462.402344 119.667969 463.359375 119.667969 C 463.199219 120.199219 463.09375 120.519531 462.988281 120.839844 C 462.507812 122.433594 461.496094 122.914062 459.847656 122.914062 C 450.425781 122.804688 441.058594 122.804688 431.636719 122.914062 C 426.152344 122.964844 420.722656 123.390625 415.242188 123.339844 C 412.207031 123.339844 409.121094 122.753906 406.085938 122.273438 C 404.328125 122.007812 404.171875 121.582031 404.863281 119.988281 C 405.179688 119.402344 405.5 118.761719 405.875 118.070312 Z M 405.875 118.070312 "/>
<path fill-rule="nonzero" fill="rgb(60.389709%, 1.959229%, 1.959229%)" fill-opacity="1" d="M 336.515625 79.132812 C 336.089844 80.144531 335.664062 81.15625 335.1875 82.273438 C 323.792969 82.273438 312.351562 82.273438 300.960938 82.273438 C 301.492188 79.878906 302.558594 78.707031 304.738281 78.707031 C 315.117188 78.652344 325.5 78.707031 335.878906 78.707031 C 335.984375 78.761719 336.089844 78.921875 336.515625 79.132812 Z M 336.515625 79.132812 "/>
<path fill-rule="nonzero" fill="rgb(58.428955%, 1.959229%, 1.959229%)" fill-opacity="1" d="M 349.449219 82.539062 C 348.972656 84.292969 348.441406 85.890625 347.164062 87.378906 C 346.523438 86.898438 346.042969 86.527344 345.457031 86.046875 C 346.042969 84.613281 346.628906 83.230469 347.269531 81.6875 C 348.171875 82.058594 348.8125 82.273438 349.449219 82.539062 Z M 349.449219 82.539062 "/>
<path fill-rule="nonzero" fill="rgb(57.249451%, 1.959229%, 1.959229%)" fill-opacity="1" d="M 348.492188 88.121094 C 349.292969 86.367188 349.875 84.984375 350.621094 83.441406 C 351.207031 83.707031 351.738281 83.972656 352.378906 84.238281 C 351.6875 85.890625 351.101562 87.324219 350.410156 89.027344 C 349.769531 88.65625 349.183594 88.390625 348.492188 88.121094 Z M 348.492188 88.121094 "/>
<path fill-rule="nonzero" fill="rgb(58.428955%, 1.959229%, 1.959229%)" fill-opacity="1" d="M 344.339844 80.144531 C 345.191406 80.515625 345.617188 80.730469 346.3125 80.996094 C 345.671875 82.484375 345.085938 83.972656 344.394531 85.515625 C 343.222656 85.144531 342.320312 84.878906 342.957031 83.546875 C 343.4375 82.484375 343.808594 81.472656 344.339844 80.144531 Z M 344.339844 80.144531 "/>
<path fill-rule="nonzero" fill="rgb(53.729248%, 1.959229%, 1.959229%)" fill-opacity="1" d="M 336.515625 82.21875 C 336.890625 81.046875 337.261719 79.984375 337.6875 78.8125 C 338.433594 78.8125 339.179688 78.8125 340.242188 78.8125 C 339.65625 80.195312 339.285156 81.421875 338.59375 82.484375 C 338.058594 83.335938 337.261719 83.070312 336.515625 82.21875 Z M 336.515625 82.21875 "/>
<path fill-rule="nonzero" fill="rgb(58.039856%, 1.959229%, 1.959229%)" fill-opacity="1" d="M 341.414062 84.238281 C 340.613281 83.921875 340.242188 83.761719 339.550781 83.496094 C 340.136719 82.113281 340.667969 80.78125 341.359375 79.503906 C 341.46875 79.292969 342.371094 79.453125 343.328125 79.453125 C 342.636719 81.261719 342.050781 82.644531 341.414062 84.238281 Z M 341.414062 84.238281 "/>
<path fill-rule="nonzero" fill="rgb(54.899597%, 1.959229%, 1.959229%)" fill-opacity="1" d="M 390.542969 117.433594 C 390.066406 117.167969 389.691406 117.007812 389.160156 116.742188 C 389.796875 115.253906 390.4375 113.816406 391.128906 112.273438 C 392.621094 113.761719 392.621094 113.761719 390.542969 117.433594 Z M 390.542969 117.433594 "/>
<path fill-rule="nonzero" fill="rgb(54.508972%, 1.959229%, 1.959229%)" fill-opacity="1" d="M 466.980469 130.09375 C 466.714844 127.113281 468.683594 124.988281 469.746094 122.539062 C 470.171875 125.574219 468.042969 127.648438 466.980469 130.09375 Z M 466.980469 130.09375 "/>
<path fill-rule="nonzero" fill="rgb(52.549744%, 1.959229%, 1.959229%)" fill-opacity="1" d="M 469.269531 120.359375 C 468.417969 122.167969 467.726562 123.765625 466.925781 125.464844 C 466.074219 124.988281 465.753906 124.402344 466.234375 123.390625 C 466.820312 122.222656 467.40625 121.050781 467.992188 119.773438 C 468.417969 119.988281 468.789062 120.144531 469.269531 120.359375 Z M 469.269531 120.359375 "/>
<path fill-rule="nonzero" fill="rgb(56.079102%, 1.959229%, 1.959229%)" fill-opacity="1" d="M 393.257812 118.550781 C 392.777344 118.335938 392.40625 118.125 392.085938 117.964844 C 392.085938 117.753906 392.035156 117.59375 392.085938 117.488281 C 392.511719 116.476562 392.886719 115.410156 393.417969 114.402344 C 393.578125 114.136719 394.109375 114.082031 394.429688 113.921875 C 394.589844 114.296875 394.960938 114.71875 394.855469 114.988281 C 394.375 116.15625 393.789062 117.273438 393.257812 118.550781 Z M 393.257812 118.550781 "/>
<path fill-rule="nonzero" fill="rgb(57.249451%, 1.959229%, 1.959229%)" fill-opacity="1" d="M 463.519531 123.019531 C 464.585938 119.773438 464.585938 119.773438 466.5 119.878906 C 465.171875 123.285156 465.171875 123.285156 463.519531 123.019531 Z M 463.519531 123.019531 "/>
<path fill-rule="nonzero" fill="rgb(52.938843%, 1.959229%, 1.959229%)" fill-opacity="1" d="M 402.414062 122.0625 C 401.507812 119.828125 402.785156 118.605469 403.476562 117.007812 C 403.851562 117.328125 404.277344 117.539062 404.277344 117.753906 C 404.277344 119.1875 403.636719 120.464844 402.414062 122.0625 Z M 402.414062 122.0625 "/>
<path fill-rule="nonzero" fill="rgb(58.428955%, 1.959229%, 1.959229%)" fill-opacity="1" d="M 399.167969 120.304688 C 399.804688 119.03125 400.445312 117.753906 401.1875 116.15625 C 402.414062 117.914062 401.347656 118.976562 400.816406 120.039062 C 400.605469 120.414062 400.070312 120.625 399.644531 120.890625 C 399.484375 120.679688 399.328125 120.519531 399.167969 120.304688 Z M 399.167969 120.304688 "/>
<path fill-rule="nonzero" fill="rgb(56.079102%, 1.959229%, 1.959229%)" fill-opacity="1" d="M 397.78125 120.304688 C 396.453125 119.402344 397.304688 118.65625 397.570312 118.070312 C 397.890625 117.328125 398.367188 116.636719 398.847656 115.945312 C 398.902344 115.890625 399.328125 116.050781 399.804688 116.15625 C 399.113281 117.59375 398.421875 118.921875 397.78125 120.304688 Z M 397.78125 120.304688 "/>
<path fill-rule="nonzero" fill="rgb(56.079102%, 1.959229%, 1.959229%)" fill-opacity="1" d="M 396.929688 115.144531 C 396.613281 116.742188 396.71875 118.496094 394.640625 119.453125 C 395.335938 116.210938 395.441406 116.105469 396.929688 115.144531 Z M 396.929688 115.144531 "/>
<path fill-rule="nonzero" fill="rgb(6.269836%, 6.269836%, 6.269836%)" fill-opacity="1" d="M 198.121094 239.304688 C 198.867188 237.65625 200.089844 237.921875 201.210938 237.921875 C 208.980469 237.921875 216.753906 237.921875 224.578125 237.921875 C 227.664062 237.921875 230.75 237.921875 233.839844 237.921875 C 234.636719 237.921875 235.433594 238.027344 236.128906 238.292969 C 236.445312 238.398438 236.554688 239.039062 237.03125 239.886719 C 224.097656 239.886719 211.535156 239.886719 199.027344 239.886719 C 198.8125 239.835938 198.496094 239.515625 198.121094 239.304688 Z M 198.121094 239.304688 "/>
<path fill-rule="nonzero" fill="rgb(1.959229%, 1.959229%, 1.959229%)" fill-opacity="1" d="M 198.070312 225.207031 C 198.601562 224.621094 198.867188 224.144531 199.238281 223.984375 C 199.71875 223.824219 200.304688 223.875 200.835938 223.875 C 212.015625 223.875 223.140625 223.875 234.316406 223.875 C 234.957031 223.875 235.59375 223.824219 236.128906 224.035156 C 236.445312 224.144531 236.605469 224.726562 236.925781 225.152344 C 234.742188 225.683594 201.101562 225.792969 198.070312 225.207031 Z M 198.070312 225.207031 "/>
<path fill-rule="nonzero" fill="rgb(1.959229%, 1.959229%, 1.959229%)" fill-opacity="1" d="M 198.28125 229.726562 C 198.601562 229.410156 198.8125 228.929688 199.238281 228.769531 C 199.71875 228.609375 200.304688 228.664062 200.835938 228.664062 C 212.015625 228.664062 223.140625 228.664062 234.316406 228.664062 C 234.957031 228.664062 235.59375 228.609375 236.128906 228.824219 C 236.445312 228.929688 236.605469 229.515625 237.085938 230.207031 C 223.992188 230.207031 211.324219 230.207031 198.601562 230.207031 C 198.496094 230.046875 198.386719 229.886719 198.28125 229.726562 Z M 198.28125 229.726562 "/>
<path fill-rule="nonzero" fill="rgb(1.959229%, 1.959229%, 1.959229%)" fill-opacity="1" d="M 198.175781 234.941406 C 198.546875 234.304688 198.707031 233.664062 199.082031 233.558594 C 199.613281 233.34375 200.304688 233.398438 200.890625 233.398438 C 211.960938 233.398438 223.035156 233.398438 234.105469 233.398438 C 234.796875 233.398438 235.542969 233.398438 236.234375 233.558594 C 236.445312 233.613281 236.765625 234.089844 236.765625 234.304688 C 236.765625 234.570312 236.445312 234.941406 236.179688 234.996094 C 235.703125 235.101562 235.117188 235.101562 234.582031 235.101562 C 223.246094 235.101562 211.910156 235.101562 200.570312 235.101562 C 199.878906 235.152344 199.1875 235.046875 198.175781 234.941406 Z M 198.175781 234.941406 "/>
<path fill-rule="nonzero" fill="rgb(64.709473%, 98.039246%, 42.749023%)" fill-opacity="1" d="M 181.410156 53.757812 C 181.410156 54.769531 180.664062 55.300781 179.597656 55.300781 C 178.480469 55.300781 177.628906 54.714844 177.789062 53.917969 C 178 52.90625 178.90625 52.75 179.757812 52.640625 C 180.714844 52.589844 181.25 53.066406 181.410156 53.757812 Z M 181.410156 53.757812 "/>
<path fill-rule="nonzero" fill="rgb(98.039246%, 45.098877%, 45.098877%)" fill-opacity="1" d="M 144.789062 53.546875 C 146.597656 52.535156 147.5 52.480469 147.875 53.492188 C 148.140625 54.289062 147.769531 54.875 147.023438 55.195312 C 145.90625 55.675781 145.214844 55.089844 144.789062 53.546875 Z M 144.789062 53.546875 "/>
<path fill-rule="nonzero" fill="rgb(98.039246%, 98.039246%, 56.079102%)" fill-opacity="1" d="M 165.121094 54.238281 C 164.164062 54.664062 163.417969 55.140625 162.617188 55.25 C 162.191406 55.300781 161.5 54.664062 161.339844 54.238281 C 161.234375 53.917969 161.875 53.28125 162.300781 52.960938 C 163.417969 52.214844 164.109375 52.960938 165.121094 54.238281 Z M 165.121094 54.238281 "/>
<path fill-rule="nonzero" fill="rgb(98.039246%, 98.039246%, 98.039246%)" fill-opacity="1" stroke-width="1" stroke-linecap="butt" stroke-linejoin="miter" stroke="rgb(0%, 0%, 0%)" stroke-opacity="1" stroke-miterlimit="10" d="M 254.997478 156.002084 C 294.200463 156.002084 333.300707 156.002084 372.496353 156.002084 C 380.796348 156.002084 385.001386 160.099621 385.096788 168.500306 C 385.096788 218.302269 385.096788 268.096889 385.096788 317.898853 C 385.096788 321.99639 384.296877 325.800196 380.899089 328.597977 C 378.998383 330.103344 377.002274 331.102027 374.4998 330.896416 C 373.80263 330.800954 373.200862 330.896416 372.496353 330.896416 C 294.200463 330.896416 215.897234 330.896416 137.601344 330.896416 C 135.502494 330.896416 133.198163 330.698148 131.297457 329.897733 C 127.598785 328.399709 125.80082 325.198049 125.301793 321.29878 C 125.103649 319.69795 125.103649 318.001658 125.103649 316.298023 C 125.103649 267.502086 125.103649 218.698805 125.103649 169.902868 C 125.103649 166.201867 125.301793 162.596328 127.796928 159.60028 C 129.697635 157.301841 132.001966 155.899279 135.098869 155.899279 C 137.403201 155.899279 139.802934 155.899279 142.099927 155.899279 C 179.703089 156.002084 217.298913 156.002084 254.997478 156.002084 Z M 254.997478 156.002084 " transform="matrix(0.532286, 0, 0, 0.531951, 42.002869, 42.002869)"/>
<path fill-rule="nonzero" fill="rgb(98.039246%, 1.959229%, 1.959229%)" fill-opacity="1" stroke-width="1" stroke-linecap="butt" stroke-linejoin="miter" stroke="rgb(0%, 0%, 0%)" stroke-opacity="1" stroke-miterlimit="10" d="M 172.900175 343.901323 C 180.297519 343.901323 185.199726 348.498201 185.302467 355.701935 C 185.397869 363.096594 180.701143 367.803621 173.597345 368.302963 C 165.899118 368.802304 160.798767 362.097911 160.901508 356.098471 C 161.099651 348.799275 165.598234 343.901323 172.900175 343.901323 Z M 172.900175 343.901323 " transform="matrix(0.532286, 0, 0, 0.531951, 42.002869, 42.002869)"/>
<path fill-rule="nonzero" fill="rgb(94.119263%, 1.959229%, 1.959229%)" fill-opacity="1" stroke-width="1" stroke-linecap="butt" stroke-linejoin="miter" stroke="rgb(0%, 0%, 0%)" stroke-opacity="1" stroke-miterlimit="10" d="M 238.199344 145.097349 C 238.302085 147.300326 237.201289 148.79835 235.197842 148.901156 C 233.297136 149.099423 231.102884 147.19752 231.102884 145.398422 C 231.102884 143.70213 232.702707 142.1013 234.603413 141.903032 C 236.900405 141.903032 238.096603 142.901715 238.199344 145.097349 Z M 238.199344 145.097349 " transform="matrix(0.532286, 0, 0, 0.531951, 42.002869, 42.002869)"/>
<path fill-rule="nonzero" fill="rgb(95.689392%, 1.959229%, 1.959229%)" fill-opacity="1" stroke-width="1" stroke-linecap="butt" stroke-linejoin="miter" stroke="rgb(0%, 0%, 0%)" stroke-opacity="1" stroke-miterlimit="10" d="M 258.997034 145.200154 C 259.099774 146.896447 257.397211 148.79835 255.701987 148.996618 C 253.999424 149.202229 252.098717 147.601399 252.003315 145.802301 C 251.797833 143.401057 253.001369 142.1013 255.401103 141.998495 C 257.397211 141.998495 258.79889 143.202789 258.997034 145.200154 Z M 258.997034 145.200154 " transform="matrix(0.532286, 0, 0, 0.531951, 42.002869, 42.002869)"/>
<path fill-rule="nonzero" fill="rgb(1.959229%, 98.039246%, 98.039246%)" fill-opacity="1" stroke-width="1" stroke-linecap="butt" stroke-linejoin="miter" stroke="rgb(0%, 0%, 0%)" stroke-opacity="1" stroke-miterlimit="10" d="M 143.398865 19.902175 C 160.703365 18.602418 174.199113 36.299666 174.301854 49.899376 C 174.397257 67.699429 158.399034 82.20236 143.200722 81.497407 C 125.698079 80.696992 112.297732 68.000503 112.20233 50.501523 C 112.099589 33.597347 126.901615 18.697881 143.398865 19.902175 Z M 143.398865 19.902175 " transform="matrix(0.532286, 0, 0, 0.531951, 42.002869, 42.002869)"/>
<path fill-rule="nonzero" fill="rgb(43.919373%, 93.728638%, 32.159424%)" fill-opacity="1" stroke-width="1" stroke-linecap="butt" stroke-linejoin="miter" stroke="rgb(0%, 0%, 0%)" stroke-opacity="1" stroke-miterlimit="10" d="M 638.697976 435.001759 C 602.40109 435.001759 566.096866 435.001759 529.799981 435.001759 C 528.501042 435.001759 527.099363 435.097221 525.800425 435.001759 C 521.09636 434.296806 518.997511 428.796707 518.997511 417.701047 C 518.997511 340.200322 518.997511 262.596791 518.997511 185.103408 C 518.997511 175.799503 520.898217 170.40221 524.80237 169.300721 C 526.101309 168.896842 527.502988 169.102453 528.801926 169.102453 C 602.100206 169.102453 675.398486 169.102453 748.696767 169.102453 C 749.702159 169.102453 750.700214 168.999648 751.698268 169.197916 C 755.998708 169.697257 758.699325 175.902308 759.10295 186.102091 C 759.198352 188.099457 759.10295 190.096823 759.10295 191.998726 C 759.10295 265.203647 759.10295 338.401224 759.10295 411.598801 C 759.10295 414.000046 759.198352 416.401291 759.000209 418.69973 C 758.501182 428.297366 755.800565 434.296806 751.698268 435.001759 C 750.39933 435.200026 748.997651 435.097221 747.698712 435.097221 C 711.299086 435.001759 675.0022 435.001759 638.697976 435.001759 Z M 638.697976 435.001759 " transform="matrix(0.532286, 0, 0, 0.531951, 42.002869, 42.002869)"/>
<path fill-rule="nonzero" fill="rgb(98.039246%, 60.389709%, 1.959229%)" fill-opacity="1" stroke-width="1" stroke-linecap="butt" stroke-linejoin="miter" stroke="rgb(0%, 0%, 0%)" stroke-opacity="1" stroke-miterlimit="10" d="M 702.602804 458.99952 C 717.602973 458.99952 732.603141 459.102325 747.500569 458.896714 C 752.197295 458.801252 754.200742 459.90274 754.098001 465.601107 C 753.797117 476.197426 754.002599 486.89655 754.002599 497.500212 C 754.002599 503.903531 752.997206 504.902214 746.399774 504.902214 C 733.799339 504.902214 721.103501 504.902214 708.503066 504.902214 C 692.196621 504.902214 675.897514 504.902214 659.598407 504.902214 C 658.299468 504.902214 656.897789 504.997676 655.598851 504.799408 C 652.70009 504.402872 650.997527 502.398164 650.997527 499.402115 C 650.997527 487.79977 650.997527 476.101963 650.997527 464.499619 C 650.997527 460.101008 652.201063 458.99952 656.699646 458.896714 C 672.000699 458.99952 687.301751 458.99952 702.602804 458.99952 Z M 702.602804 458.99952 " transform="matrix(0.532286, 0, 0, 0.531951, 42.002869, 42.002869)"/>
<path fill-rule="nonzero" fill="rgb(98.039246%, 60.389709%, 1.959229%)" fill-opacity="1" stroke-width="1" stroke-linecap="butt" stroke-linejoin="miter" stroke="rgb(0%, 0%, 0%)" stroke-opacity="1" stroke-miterlimit="10" d="M 576.099425 458.99952 C 591.099593 458.99952 606.099762 458.99952 621.099931 458.99952 C 626.596568 458.99952 627.998247 460.101008 627.998247 465.601107 C 628.100988 476.403037 628.100988 487.300429 627.998247 498.102359 C 627.998247 503.103116 626.097541 504.997676 620.99719 504.997676 C 590.996853 504.997676 560.996515 504.997676 531.098919 504.997676 C 526.101309 504.997676 524.097862 503.103116 524.097862 498.102359 C 524.002459 487.300429 524.002459 476.403037 524.097862 465.601107 C 524.097862 460.703155 525.903166 458.99952 530.702633 458.99952 C 545.798203 458.99952 560.901113 458.99952 576.099425 458.99952 Z M 576.099425 458.99952 " transform="matrix(0.532286, 0, 0, 0.531951, 42.002869, 42.002869)"/>
<path fill-rule="nonzero" fill="rgb(60.389709%, 98.039246%, 81.17981%)" fill-opacity="1" d="M 113.753906 63.757812 C 112.851562 63.757812 112 63.867188 111.09375 63.757812 C 109.550781 63.601562 108.75 62.375 109.175781 60.941406 C 110.402344 56.898438 116.308594 53.867188 120.355469 55.25 C 122.058594 55.832031 122.964844 57.058594 123.441406 58.601562 C 123.976562 60.410156 123.441406 61.3125 121.738281 62.269531 C 120.035156 63.121094 116.683594 63.757812 113.753906 63.757812 Z M 113.753906 63.757812 "/>
</svg>
